<svg t="1728564472308" class="icon" viewBox="0 0 1316 1024" version="1.1" xmlns="http://www.w3.org/2000/svg" p-id="881"><path d="M1316.530757 88.782745a35.469219 35.469219 0 0 0-3.583488 2.12084l-133.320383 92.366234c-359.811456 251.868019-540.082845 377.582631-540.667905 377.143836l-544.836452-385.188401-93.975146-65.965434v-23.914298c0-47.097272 36.858734-85.345522 82.273961-85.345522h1151.762319c21.793458 0 42.78246 8.995286 58.213398 25.011284 15.430938 16.015998 24.060563 37.663191 24.060563 60.334238v3.437223h0.073133z m0 102.312241v747.48636c0 47.097272-36.858734 85.27239-82.347094 85.272389H82.421344c-21.86659 0-42.78246-8.922154-58.213398-24.938152a87.027567 87.027567 0 0 1-24.060563-60.334237V212.303385l47.682331 33.494644L592.593033 630.840166c28.667905 20.403942 66.404228 20.477075 95.145265 0.438794l538.035138-377.290101c3.802885-2.705899 34.152835-23.841166 90.757321-62.893873z" p-id="882"></path></svg>